<svg xmlns="http://www.w3.org/2000/svg" width="32" height="32" viewBox="0 0 32 32" fill="none">
  <g clip-path="url(#clip0_509_23258)">
    <path d="M5.33333 21.3333H9.33333C10.0667 21.3333 10.6667 20.7333 10.6667 19.9999C10.6667 19.2666 10.0667 18.6666 9.33333 18.6666H5.33333C4.6 18.6666 4 19.2666 4 19.9999C4 20.7333 4.6 21.3333 5.33333 21.3333ZM14 21.3333H18C18.7333 21.3333 19.3333 20.7333 19.3333 19.9999C19.3333 19.2666 18.7333 18.6666 18 18.6666H14C13.2667 18.6666 12.6667 19.2666 12.6667 19.9999C12.6667 20.7333 13.2667 21.3333 14 21.3333ZM22.6667 21.3333H26.6667C27.4 21.3333 28 20.7333 28 19.9999C28 19.2666 27.4 18.6666 26.6667 18.6666H22.6667C21.9333 18.6666 21.3333 19.2666 21.3333 19.9999C21.3333 20.7333 21.9333 21.3333 22.6667 21.3333ZM5.33333 26.6666C6.06667 26.6666 6.66667 26.0666 6.66667 25.3333C6.66667 24.5999 6.06667 23.9999 5.33333 23.9999C4.6 23.9999 4 24.5999 4 25.3333C4 26.0666 4.6 26.6666 5.33333 26.6666ZM10.6667 26.6666C11.4 26.6666 12 26.0666 12 25.3333C12 24.5999 11.4 23.9999 10.6667 23.9999C9.93333 23.9999 9.33333 24.5999 9.33333 25.3333C9.33333 26.0666 9.93333 26.6666 10.6667 26.6666ZM16 26.6666C16.7333 26.6666 17.3333 26.0666 17.3333 25.3333C17.3333 24.5999 16.7333 23.9999 16 23.9999C15.2667 23.9999 14.6667 24.5999 14.6667 25.3333C14.6667 26.0666 15.2667 26.6666 16 26.6666ZM21.3333 26.6666C22.0667 26.6666 22.6667 26.0666 22.6667 25.3333C22.6667 24.5999 22.0667 23.9999 21.3333 23.9999C20.6 23.9999 20 24.5999 20 25.3333C20 26.0666 20.6 26.6666 21.3333 26.6666ZM26.6667 26.6666C27.4 26.6666 28 26.0666 28 25.3333C28 24.5999 27.4 23.9999 26.6667 23.9999C25.9333 23.9999 25.3333 24.5999 25.3333 25.3333C25.3333 26.0666 25.9333 26.6666 26.6667 26.6666ZM5.33333 15.9999H13.3333C14.0667 15.9999 14.6667 15.3999 14.6667 14.6666C14.6667 13.9333 14.0667 13.3333 13.3333 13.3333H5.33333C4.6 13.3333 4 13.9333 4 14.6666C4 15.3999 4.6 15.9999 5.33333 15.9999ZM18.6667 15.9999H26.6667C27.4 15.9999 28 15.3999 28 14.6666C28 13.9333 27.4 13.3333 26.6667 13.3333H18.6667C17.9333 13.3333 17.3333 13.9333 17.3333 14.6666C17.3333 15.3999 17.9333 15.9999 18.6667 15.9999ZM4 6.66659V9.33325C4 10.0666 4.6 10.6666 5.33333 10.6666H26.6667C27.4 10.6666 28 10.0666 28 9.33325V6.66659C28 5.93325 27.4 5.33325 26.6667 5.33325H5.33333C4.6 5.33325 4 5.93325 4 6.66659Z"/>
  </g>
  <defs>
    <clipPath id="clip0_509_23258">
      <rect width="32" height="32" fill="white"/>
    </clipPath>
  </defs>
</svg>