<svg xmlns="http://www.w3.org/2000/svg" width="80" height="80" viewBox="0 0 80 80" fill="none">
  <path d="M0 40C0 62 17.875 80 40 80C62 80 80 62.125 80 40C80 18 62 0 40 0C18 0 0 18 0 40ZM77.5 40C77.5 60.625 60.75 77.5 40 77.5C19.375 77.5 2.5 60.625 2.5 40C2.5 19.375 19.375 2.5 40 2.5C60.625 2.5 77.5 19.375 77.5 40Z" fill="#6299FF"/>
  <path d="M27.875 35C26.75 33.875 24.75 33.875 23.625 35L20.875 37.75C19.75 38.875 19.75 40.875 20.875 42L34.25 55.375C34.875 56 35.625 56.25 36.375 56.25H36.5C37.375 56.25 38.125 56 38.625 55.375L59.125 34.875C60.25 33.75 60.25 31.75 59.125 30.625L56.375 27.875C55.25 26.75 53.25 26.75 52.125 27.875L36.375 43.375L27.875 35ZM53.75 29.5C54 29.25 54.25 29.25 54.5 29.5L57.25 32.25C57.5 32.5 57.5 32.75 57.25 33L36.75 53.625C36.625 53.75 36.5 53.75 36.375 53.75H36.25C36.125 53.75 36 53.75 35.875 53.625L22.625 40.25C22.375 40 22.375 39.75 22.625 39.5L25.375 36.75C25.5 36.625 25.625 36.625 25.75 36.625C25.875 36.625 26 36.625 26.125 36.75L35.5 46.125C36 46.625 36.75 46.625 37.25 46.125L53.75 29.5Z" fill="#6299FF"/>
</svg>