<svg xmlns="http://www.w3.org/2000/svg" width="80" height="80" viewBox="0 0 80 80" fill="none">
  <path d="M40 0C35.5167 0 31.1208 0.738307 26.9167 2.1899C26.2 2.436 25.8208 3.22436 26.0708 3.94598C26.3208 4.66343 27.1083 5.04719 27.825 4.79691C31.7292 3.44544 35.825 2.76135 40 2.76135C60.5333 2.76135 77.2417 19.488 77.2417 40.0438C77.2417 59.6069 61.9833 75.9497 42.5 77.2386C41.7417 77.2929 41.1708 77.9478 41.225 78.7111C41.2667 79.4369 41.875 80 42.5917 80C42.625 80 42.6542 80 42.6875 80C63.6083 78.6068 80 61.0543 80 40.0438C80 17.9613 62.0583 0 40 0ZM20.5167 5.18901C20.3458 5.20986 20.1667 5.26826 20 5.36003C19.3375 5.74378 19.1167 6.59054 19.5 7.24542L20.8792 9.64388C21.1333 10.086 21.5958 10.3321 22.0708 10.3321C22.3042 10.3321 22.5417 10.2737 22.7583 10.1486C23.4208 9.76485 23.6417 8.91809 23.2583 8.26321L21.8792 5.86475C21.6 5.37671 21.0542 5.12227 20.5167 5.18901ZM40.7333 8.28823C36.4167 8.18395 32.1125 8.96814 28.1 10.5908C27.3875 10.8786 27.0542 11.6878 27.3333 12.3927C27.5542 12.9308 28.0667 13.2562 28.6167 13.2562C28.7875 13.2562 28.9583 13.2228 29.1333 13.1602C34.0208 11.1747 39.375 10.5699 44.6083 11.4125C45.3625 11.5334 46.0667 11.0162 46.1833 10.2696C46.3042 9.51457 45.7917 8.80129 45.0417 8.68033C43.6083 8.45091 42.1667 8.3216 40.7333 8.28823ZM14.2292 9.9317C13.8792 9.91084 13.5167 10.0318 13.2333 10.2821C12.6667 10.7951 12.625 11.6711 13.1292 12.23L14.9792 14.2865C15.2458 14.5868 15.625 14.7411 16.0083 14.7411C16.3292 14.7411 16.6667 14.6243 16.925 14.3907C17.4958 13.8777 17.5375 13.0017 17.025 12.4428L15.1833 10.3864C14.9292 10.1027 14.5792 9.94838 14.2292 9.9317ZM50.5667 10.1987C50.025 10.2195 49.5292 10.5574 49.3333 11.0913C49.0667 11.8087 49.4292 12.6055 50.1417 12.8724C51.1208 13.2395 52.0958 13.6608 53.0333 14.1363C53.2333 14.2364 53.45 14.2865 53.6583 14.2865C54.1583 14.2865 54.6458 14.0112 54.8917 13.5273C55.2333 12.8474 54.9583 12.0173 54.2792 11.6711C53.25 11.1539 52.1833 10.6867 51.1042 10.2821C50.925 10.2195 50.7417 10.1945 50.5667 10.1987ZM8.54167 15.9549C8.19167 16.005 7.86667 16.1969 7.64167 16.5014C7.19167 17.1187 7.32917 17.9863 7.94167 18.4327L10.1792 20.0594C10.4208 20.2346 10.7042 20.3222 10.9875 20.3222C11.4125 20.3222 11.8333 20.122 12.1083 19.7549C12.5542 19.1334 12.4125 18.2742 11.8 17.8195L9.57083 16.2011C9.25833 15.9758 8.89167 15.9007 8.54167 15.9549ZM4.74167 22.9334C4.20833 22.9292 3.69167 23.2337 3.45833 23.751C3.15 24.4517 3.45833 25.2693 4.15833 25.5821L6.67917 26.7042C6.85833 26.7835 7.04583 26.821 7.2375 26.821C7.7625 26.821 8.27083 26.5123 8.49583 25.9951C8.80833 25.2985 8.49583 24.4851 7.8 24.1806L5.27917 23.0586C5.10417 22.9751 4.925 22.9376 4.74167 22.9334ZM56.55 27.6135C56.2 27.6135 55.8458 27.7512 55.575 28.0181L35.8625 47.7564L25.8042 37.6829C25.2625 37.1448 24.3917 37.1448 23.8542 37.6829C23.3125 38.2251 23.3125 39.0969 23.8542 39.6392L34.8875 50.6846C35.1542 50.9516 35.5083 51.0892 35.8625 51.0892C36.2167 51.0892 36.5667 50.9516 36.8375 50.6846L57.525 29.9703C58.0667 29.4322 58.0667 28.5604 57.525 28.0181C57.2583 27.7512 56.9 27.6135 56.55 27.6135ZM1.9625 30.646C1.43333 30.7503 0.991667 31.1591 0.870833 31.718C0.716667 32.4647 1.19167 33.1988 1.94167 33.3531L4.63333 33.9288C4.72917 33.9455 4.82917 33.958 4.925 33.958C5.55833 33.958 6.13333 33.5158 6.27083 32.8609C6.42917 32.1185 5.95417 31.3843 5.20417 31.23L2.5125 30.6585C2.32083 30.6126 2.1375 30.6126 1.9625 30.646ZM1.37917 38.6631C0.620833 38.6631 0 39.2805 0 40.0438C0 40.803 0.620833 41.4245 1.37917 41.4245H4.1375C4.89583 41.4245 5.51667 40.803 5.51667 40.0438C5.51667 39.2805 4.89583 38.6631 4.1375 38.6631H1.37917ZM5.18333 46.1463C5.00417 46.1171 4.81667 46.1171 4.63333 46.1546L1.93333 46.7303C1.19167 46.8846 0.716667 47.6188 0.870833 48.3696C1.0125 49.0161 1.58333 49.4583 2.22083 49.4583C2.31667 49.4583 2.40833 49.4499 2.50417 49.4291L5.20417 48.8534C5.95417 48.6991 6.42917 47.965 6.27083 47.2225C6.15417 46.6594 5.70417 46.2506 5.18333 46.1463ZM7.2125 53.2624C7.0375 53.2666 6.85417 53.3041 6.67917 53.3792L4.15833 54.5013C3.4625 54.8141 3.15 55.6317 3.45833 56.3324C3.68333 56.8455 4.19167 57.15 4.72083 57.15C4.90833 57.15 5.09583 57.1083 5.27917 57.029L7.8 55.907C8.49583 55.5983 8.80833 54.7766 8.50417 54.08C8.26667 53.5586 7.75417 53.2499 7.2125 53.2624ZM11.2 59.7821C10.85 59.7237 10.4833 59.7987 10.1708 60.024L7.94167 61.6508C7.32917 62.0971 7.19167 62.9647 7.64167 63.582C7.90833 63.9533 8.32917 64.1452 8.7625 64.1452C9.04167 64.1452 9.32083 64.0659 9.57083 63.8824L11.8 62.2639C12.4125 61.8134 12.5542 60.95 12.1083 60.3285C11.8792 60.0198 11.55 59.8363 11.2 59.7821ZM15.925 65.3423C15.575 65.359 15.2333 65.5175 14.9792 65.797L13.1292 67.8534C12.625 68.4123 12.6708 69.2883 13.2333 69.8013C13.4958 70.0349 13.8292 70.1559 14.1583 70.1559C14.5375 70.1559 14.9083 69.9974 15.1833 69.6971L17.025 67.6406C17.5375 67.0817 17.4875 66.2057 16.925 65.6969C16.6417 65.4424 16.2833 65.3298 15.925 65.3423ZM22.2417 69.7638C21.7042 69.6971 21.1583 69.9473 20.8792 70.4395L19.5 72.838C19.1167 73.4929 19.3417 74.3355 20 74.7192C20.2167 74.8444 20.4542 74.9069 20.6917 74.9069C21.1625 74.9069 21.6292 74.6608 21.8792 74.2187L23.2583 71.8244C23.6417 71.1653 23.4208 70.3186 22.7583 69.939C22.5917 69.8431 22.4208 69.7847 22.2417 69.7638ZM28.8 72.8088C28.2583 72.8589 27.7792 73.2134 27.6083 73.7598L26.75 76.3835C26.5208 77.1093 26.9125 77.8894 27.6333 78.1229C27.7792 78.1688 27.925 78.1939 28.0667 78.1939C28.6458 78.1939 29.1875 77.8184 29.375 77.2386L30.2333 74.6108C30.4625 73.8892 30.0667 73.105 29.3417 72.8755C29.1583 72.813 28.975 72.7921 28.8 72.8088ZM36.3958 74.373C35.625 74.2979 34.9583 74.8444 34.875 75.6035L34.5917 78.3482C34.5083 79.1074 35.0583 79.7873 35.8208 79.8707C35.8667 79.8707 35.9167 79.8707 35.9625 79.8707C36.6583 79.8707 37.2583 79.3451 37.3333 78.636L37.625 75.8913C37.7042 75.1322 37.1542 74.4564 36.3958 74.373Z" fill="#6299FF"/>
</svg>