<svg xmlns="http://www.w3.org/2000/svg" width="49" height="49" viewBox="0 0 49 49" fill="none">
  <g clip-path="url(#clip0_607_1591)">
    <path d="M22.8816 36.7878H28.8816C29.9816 36.7878 30.8816 35.8878 30.8816 34.7878V12.7878C30.8816 11.6878 29.9816 10.7878 28.8816 10.7878H22.8816C21.7816 10.7878 20.8816 11.6878 20.8816 12.7878V34.7878C20.8816 35.8878 21.7816 36.7878 22.8816 36.7878ZM10.8816 36.7878H16.8816C17.9816 36.7878 18.8816 35.8878 18.8816 34.7878V12.7878C18.8816 11.6878 17.9816 10.7878 16.8816 10.7878H10.8816C9.78159 10.7878 8.88159 11.6878 8.88159 12.7878V34.7878C8.88159 35.8878 9.78159 36.7878 10.8816 36.7878ZM32.8816 12.7878V34.7878C32.8816 35.8878 33.7816 36.7878 34.8816 36.7878H40.8816C41.9816 36.7878 42.8816 35.8878 42.8816 34.7878V12.7878C42.8816 11.6878 41.9816 10.7878 40.8816 10.7878H34.8816C33.7816 10.7878 32.8816 11.6878 32.8816 12.7878Z" fill="#C6C7CA"/>
  </g>
  <defs>
    <clipPath id="clip0_607_1591">
      <rect width="48" height="48" fill="white" transform="translate(0.881592 0.787842)"/>
    </clipPath>
  </defs>
</svg>