<svg xmlns="http://www.w3.org/2000/svg" width="49" height="49" viewBox="0 0 49 49" fill="none">
  <g clip-path="url(#clip0_607_1582)">
    <path d="M22.8026 36.7878H26.8026C27.9026 36.7878 28.8026 35.8878 28.8026 34.7878C28.8026 33.6878 27.9026 32.7878 26.8026 32.7878H22.8026C21.7026 32.7878 20.8026 33.6878 20.8026 34.7878C20.8026 35.8878 21.7026 36.7878 22.8026 36.7878ZM6.80261 14.7878C6.80261 15.8878 7.70261 16.7878 8.80261 16.7878H40.8026C41.9026 16.7878 42.8026 15.8878 42.8026 14.7878C42.8026 13.6878 41.9026 12.7878 40.8026 12.7878H8.80261C7.70261 12.7878 6.80261 13.6878 6.80261 14.7878ZM14.8026 26.7878H34.8026C35.9026 26.7878 36.8026 25.8878 36.8026 24.7878C36.8026 23.6878 35.9026 22.7878 34.8026 22.7878H14.8026C13.7026 22.7878 12.8026 23.6878 12.8026 24.7878C12.8026 25.8878 13.7026 26.7878 14.8026 26.7878Z" fill="#C6C7CA"/>
  </g>
  <defs>
    <clipPath id="clip0_607_1582">
      <rect width="48" height="48" fill="white" transform="translate(0.802612 0.787842)"/>
    </clipPath>
  </defs>
</svg>