<svg xmlns="http://www.w3.org/2000/svg" width="67" height="80" viewBox="0 0 67 80" fill="none">
  <path d="M44.5919 9.5179C44.8566 9.63943 45.1257 9.64811 45.3992 9.54829C45.6726 9.44846 45.8723 9.27051 45.9938 9.00575L48.0815 4.56565C48.177 4.30957 48.1726 4.05349 48.0684 3.80176C47.9643 3.55002 47.7863 3.36339 47.5346 3.25054C47.2829 3.13335 47.0268 3.12033 46.762 3.20714C46.5016 3.29395 46.302 3.45454 46.1717 3.69759L44.0841 8.13769C43.9625 8.39811 43.9539 8.66287 44.0537 8.93197C44.1535 9.19672 44.3315 9.39638 44.5919 9.5179Z" fill="#6299FF"/>
  <mask id="mask0_577_24589" style="mask-type:luminance" maskUnits="userSpaceOnUse" x="31" y="0" width="4" height="9">
    <path d="M31.5277 0H34.861V8.12934H31.5277V0Z" fill="white"/>
  </mask>
  <g mask="url(#mask0_577_24589)">
    <path d="M33.3115 7.03999C33.6023 7.03999 33.8541 6.93582 34.0581 6.73183C34.2664 6.52349 34.3662 6.2761 34.3662 5.98964V1.08946C34.3662 0.803006 34.262 0.55561 34.0581 0.351617C33.8497 0.147624 33.6023 0.043457 33.3115 0.043457C33.0207 0.043457 32.7733 0.147624 32.565 0.351617C32.361 0.55561 32.2568 0.803006 32.2568 1.08946V5.98964C32.2568 6.2761 32.3567 6.52349 32.565 6.73183C32.769 6.93582 33.0207 7.03999 33.3115 7.03999Z" fill="#6299FF"/>
  </g>
  <path d="M1.4627 26.1242L6.21965 27.3915C6.31079 27.4132 6.40194 27.4263 6.49308 27.4263C6.76218 27.4263 6.99222 27.3395 7.19187 27.1659C7.39152 26.9922 7.50871 26.7752 7.54343 26.5148C7.57815 26.2544 7.52173 26.0157 7.37416 25.7987C7.22659 25.5817 7.0226 25.4384 6.76652 25.369L2.01392 24.1016C1.92277 24.0756 1.83163 24.0669 1.73614 24.0669C1.47138 24.0669 1.23701 24.1537 1.03735 24.3273C0.8377 24.5009 0.720514 24.7136 0.685792 24.9784C0.65107 25.2388 0.711833 25.4775 0.859403 25.6945C1.00697 25.9115 1.20663 26.0547 1.4627 26.1242Z" fill="#6299FF"/>
  <path d="M11.3758 16.6013C11.5754 16.7662 11.8011 16.8443 12.0572 16.8443C12.387 16.8487 12.6561 16.7228 12.8645 16.4711C13.0511 16.2497 13.1336 15.998 13.1075 15.7072C13.0815 15.4207 12.96 15.1864 12.7343 14.9997L8.9452 11.8487C8.74989 11.6838 8.52854 11.6013 8.27246 11.6056C8.04677 11.6056 7.84711 11.6664 7.66482 11.7923C7.48253 11.9181 7.35666 12.0874 7.27854 12.2914C7.20475 12.4997 7.19607 12.7081 7.2525 12.9207C7.30892 13.1334 7.42177 13.3114 7.59538 13.4502L11.3758 16.6013Z" fill="#6299FF"/>
  <path d="M54.5572 16.8618C54.8133 16.8618 55.039 16.7793 55.2343 16.6187L59.019 13.4677C59.2447 13.2854 59.3663 13.0467 59.3923 12.7602C59.4184 12.4737 59.3402 12.2177 59.1536 11.9963C58.9409 11.7489 58.6718 11.623 58.342 11.623C58.1553 11.623 57.9817 11.6664 57.8211 11.7576C57.7647 11.788 57.7126 11.827 57.6649 11.8661L53.8758 15.0171C53.6545 15.2038 53.5329 15.4382 53.5069 15.7246C53.4809 16.0154 53.5633 16.2671 53.7499 16.4885C53.9583 16.7402 54.2317 16.8661 54.5572 16.8618Z" fill="#6299FF"/>
  <path d="M20.6293 9.00608C20.6814 9.14496 20.7551 9.26215 20.8593 9.36632C20.9591 9.47049 21.0807 9.55295 21.2152 9.60503C21.3498 9.66146 21.4886 9.6875 21.6362 9.6875C21.7838 9.68316 21.9227 9.65278 22.0572 9.59201C22.1874 9.53125 22.3046 9.44445 22.4001 9.33594C22.4999 9.22743 22.5694 9.1059 22.6171 8.96701C22.6649 8.82812 22.6779 8.68924 22.6649 8.54601C22.6518 8.39844 22.6084 8.26389 22.539 8.13802L20.4513 3.6849C20.3211 3.44184 20.1215 3.28125 19.8567 3.19444C19.5963 3.10764 19.3402 3.12066 19.0885 3.23785C18.8367 3.35069 18.6588 3.53733 18.5546 3.78906C18.4461 4.0408 18.4418 4.29687 18.5416 4.55295L20.6293 9.00608Z" fill="#6299FF"/>
  <mask id="mask1_577_24589" style="mask-type:luminance" maskUnits="userSpaceOnUse" x="9" y="10" width="50" height="70">
    <path d="M9.30542 10.3516H58.1943V80H9.30542V10.3516Z" fill="white"/>
  </mask>
  <g mask="url(#mask1_577_24589)">
    <path d="M56.9618 77.9127H47.1093C47.3915 77.3875 47.539 76.8232 47.5477 76.2286C47.5477 75.7295 47.4522 75.2477 47.2569 74.7833C47.0659 74.3233 46.7882 73.9153 46.4323 73.5594C46.0764 73.2078 45.664 72.9344 45.1953 72.7434C44.7309 72.5524 44.2448 72.4569 43.7413 72.4569H43.4505V69.0802H43.7413C44.2448 69.0802 44.7309 68.9847 45.1953 68.7937C45.664 68.6028 46.072 68.3293 46.4323 67.9734C46.7882 67.6219 47.0616 67.2095 47.2569 66.7495C47.4479 66.2851 47.5434 65.8033 47.5434 65.3042C47.5434 64.805 47.4479 64.3233 47.2569 63.8588C47.0616 63.3988 46.7882 62.9908 46.4323 62.6349C46.072 62.279 45.664 62.0099 45.1953 61.8146C44.7309 61.6236 44.2448 61.5281 43.7413 61.5281H43.5373V60.1739C43.5546 58.351 43.9583 56.6193 44.7482 54.97C45.5382 53.325 46.6449 51.9187 48.0642 50.7599C48.9106 50.0481 49.7048 49.2842 50.4383 48.4595C51.1718 47.6349 51.8446 46.7625 52.4522 45.8423C53.0555 44.9222 53.5937 43.9587 54.0581 42.9604C54.5269 41.9621 54.9175 40.9378 55.23 39.8831C55.5468 38.8285 55.7812 37.7564 55.9375 36.667C56.0981 35.5776 56.1718 34.4838 56.1718 33.3814C56.1675 32.2833 56.085 31.1896 55.9201 30.1002C55.7552 29.0107 55.5121 27.943 55.1909 26.8884C54.8698 25.8337 54.4748 24.8094 54.0017 23.8154C53.5286 22.8215 52.9861 21.8623 52.3741 20.9465C51.7621 20.0264 51.085 19.1583 50.3472 18.338C49.605 17.522 48.8107 16.7581 47.96 16.055C47.1093 15.3476 46.2066 14.7095 45.2604 14.1323C44.3185 13.5594 43.3333 13.0559 42.3133 12.6219C41.2934 12.1878 40.2474 11.8319 39.1753 11.5498C38.1033 11.2677 37.0138 11.0637 35.9114 10.9378C35.0347 10.8423 34.1579 10.7946 33.2769 10.7946C31.0112 10.7859 28.7977 11.1114 26.6276 11.7668C24.4618 12.4222 22.4435 13.3771 20.5685 14.6357C19.6961 15.2217 18.8671 15.864 18.0859 16.5585C17.4739 17.101 16.901 17.6696 16.3541 18.2686C15.8073 18.8719 15.2951 19.5012 14.8177 20.1566C14.3402 20.8076 13.8975 21.489 13.4939 22.1922C13.0859 22.891 12.7213 23.6158 12.3958 24.3536C12.0659 25.0958 11.7795 25.851 11.5364 26.6236C11.289 27.3962 11.085 28.1774 10.9244 28.9717C10.7638 29.7616 10.6467 30.5646 10.5729 31.3675C10.4991 32.1748 10.4687 32.9821 10.4817 33.7894C10.4948 34.5967 10.5512 35.404 10.651 36.2069C10.7508 37.0099 10.8897 37.8041 11.0763 38.5941C11.263 39.3797 11.4887 40.1566 11.7578 40.9205C12.0269 41.6844 12.3394 42.4309 12.6866 43.1601C13.0382 43.8892 13.4288 44.601 13.8541 45.2911C14.2795 45.9812 14.7439 46.6453 15.243 47.2833C15.7421 47.9257 16.2717 48.5377 16.8359 49.1193C17.4001 49.7052 17.9948 50.2564 18.6198 50.7772C20.0303 51.9361 21.1284 53.338 21.914 54.983C22.6996 56.6279 23.0989 58.3597 23.1076 60.1739V61.5368H22.9166C22.4132 61.5368 21.927 61.6323 21.4583 61.8232C20.9939 62.0142 20.5816 62.2877 20.2257 62.6436C19.8654 62.9951 19.592 63.4031 19.3967 63.8675C19.2057 64.3319 19.1059 64.8137 19.1059 65.3128C19.1059 65.8163 19.2057 66.2981 19.3967 66.7581C19.592 67.2226 19.8654 67.6305 20.2257 67.9864C20.5816 68.338 20.9939 68.6114 21.4583 68.8024C21.927 68.9934 22.4132 69.0889 22.9166 69.0889H23.2074V72.4656H22.9166C22.4132 72.4656 21.927 72.5611 21.4626 72.7521C20.9939 72.943 20.5816 73.2165 20.2257 73.568C19.8698 73.9239 19.592 74.3319 19.401 74.792C19.2057 75.2564 19.1102 75.7382 19.1059 76.2373C19.1189 76.8319 19.2665 77.3962 19.5486 77.9213H10.6119C10.3211 77.9213 10.0737 78.0255 9.86541 78.2295C9.66142 78.4335 9.55725 78.6809 9.55725 78.9673C9.55725 79.2581 9.66142 79.5055 9.86541 79.7095C10.0737 79.9135 10.3211 80.0134 10.6119 80.0134H56.9618C57.2526 80.0134 57.5043 79.9135 57.7083 79.7095C57.9166 79.5055 58.0165 79.2581 58.0165 78.9673C58.0165 78.6809 57.9166 78.4335 57.7083 78.2295C57.5043 78.0255 57.2526 77.9213 56.9618 77.9213V77.9127ZM19.4791 18.121C21.3715 16.4283 23.5112 15.1305 25.8897 14.2321C28.2682 13.3293 30.7335 12.8823 33.2812 12.891C34.0842 12.891 34.8828 12.9344 35.6814 13.0255C36.6796 13.1384 37.6649 13.325 38.6415 13.5811C39.6137 13.8371 40.5599 14.1627 41.4887 14.5576C42.4132 14.9482 43.3029 15.4083 44.1623 15.9292C45.0173 16.4543 45.8333 17.0359 46.6059 17.6739C47.3784 18.3163 48.1033 19.0064 48.7717 19.7529C49.4444 20.4951 50.0564 21.2851 50.6119 22.1184C51.1632 22.9517 51.6579 23.8198 52.0833 24.7226C52.5086 25.6253 52.8689 26.5585 53.1597 27.5134C53.4505 28.4682 53.6718 29.4404 53.8194 30.4257C53.967 31.4153 54.0408 32.4092 54.0408 33.4074C54.0451 34.4057 53.9713 35.3996 53.8281 36.3849C53.6849 37.3745 53.4678 38.3467 53.1814 39.3015C52.8949 40.2607 52.539 41.1896 52.118 42.0967C51.6927 43.0038 51.2066 43.8719 50.651 44.7052C50.0998 45.5429 49.4921 46.3328 48.8237 47.0793C48.1553 47.8259 47.4349 48.5203 46.6666 49.167C45.8507 49.8354 45.1128 50.5906 44.4618 51.4196C43.8107 52.2529 43.2552 53.1427 42.7994 54.0932C42.3437 55.0437 42.0008 56.0333 41.7621 57.062C41.5234 58.0863 41.4019 59.1279 41.3932 60.1783V61.5411H37.7691L42.4088 34.7703C42.4435 34.562 42.4218 34.3623 42.335 34.1713C42.2526 33.976 42.118 33.8241 41.9401 33.7113C41.7665 33.5984 41.5755 33.5463 41.3715 33.5463C41.1545 33.542 40.9592 33.6028 40.7812 33.7243L37.4435 35.9552L33.8802 33.7069C33.4982 33.4726 33.1206 33.4726 32.743 33.7069L29.1796 35.9552L25.842 33.7243C25.664 33.6028 25.4687 33.542 25.2517 33.5463C25.0434 33.5463 24.8524 33.5984 24.6788 33.7113C24.5052 33.8285 24.3793 33.9804 24.2968 34.1713C24.2187 34.3666 24.197 34.562 24.2361 34.7703L28.8541 61.5281H25.217V60.1739C25.2083 59.1236 25.0911 58.0906 24.8524 57.0663C24.618 56.042 24.2751 55.0524 23.8237 54.1062C23.368 53.1557 22.8168 52.266 22.1658 51.437C21.5191 50.608 20.7856 49.8571 19.9696 49.1887C19.401 48.7156 18.8628 48.2121 18.3507 47.6826C17.8385 47.1531 17.3524 46.5976 16.901 46.016C16.4496 45.4387 16.0286 44.8311 15.6423 44.2061C15.2517 43.5811 14.9001 42.9387 14.5833 42.2746C14.2621 41.6106 13.9843 40.9335 13.7369 40.239C13.4939 39.5489 13.2855 38.8415 13.1163 38.1297C12.9513 37.4135 12.8211 36.693 12.73 35.9639C12.6388 35.2347 12.5868 34.5012 12.5781 33.7677C12.5651 33.0342 12.5911 32.3007 12.6605 31.5715C12.73 30.838 12.8342 30.1132 12.9817 29.3927C13.125 28.6722 13.3116 27.9647 13.5329 27.2616C13.7586 26.5628 14.0147 25.8771 14.3142 25.2043C14.6093 24.5316 14.9435 23.8762 15.3125 23.2382C15.677 22.6002 16.0807 21.9838 16.5147 21.3892C16.9487 20.7946 17.4132 20.226 17.9079 19.6792C18.4071 19.1366 18.9279 18.6158 19.4791 18.1297V18.121ZM30.9939 61.5281L26.71 36.8232L28.572 38.0732C28.75 38.1904 28.9496 38.2512 29.1623 38.2512C29.3706 38.2512 29.5573 38.1948 29.7309 38.0863L33.3116 35.8293L36.8923 38.0863C37.0659 38.1948 37.2526 38.2512 37.4609 38.2512C37.6736 38.2512 37.8689 38.1904 38.0468 38.0732L39.9132 36.8232L35.625 61.5281H30.9939ZM22.9166 63.6201H43.7196C43.9409 63.6201 44.1579 63.6592 44.3663 63.746C44.5746 63.8328 44.7612 63.9543 44.9218 64.1106C45.0781 64.2712 45.204 64.4535 45.2908 64.6575C45.3732 64.8658 45.4166 65.0828 45.4166 65.3042C45.4166 65.5299 45.3732 65.7425 45.2908 65.9509C45.204 66.1549 45.0781 66.3371 44.9218 66.4977C44.7612 66.654 44.5746 66.7755 44.3663 66.8623C44.1579 66.9491 43.9409 66.9925 43.7196 66.9925H22.9166C22.6909 66.9925 22.4739 66.9491 22.2656 66.8623C22.0573 66.7755 21.875 66.654 21.7144 66.4977C21.5538 66.3371 21.4323 66.1549 21.3454 65.9509C21.2586 65.7425 21.2152 65.5299 21.2152 65.3042C21.2152 65.0828 21.2586 64.8658 21.3454 64.6575C21.4323 64.4535 21.5538 64.2712 21.7144 64.1106C21.875 63.9543 22.0573 63.8328 22.2656 63.746C22.4739 63.6592 22.6909 63.6201 22.9166 63.6201ZM41.3324 69.0802V72.4569H25.3081V69.0802H41.3324ZM22.9166 74.5533H43.7196C43.9496 74.5446 44.1753 74.5793 44.3923 74.6575C44.6137 74.7399 44.8046 74.8571 44.9739 75.0177C45.1432 75.174 45.2734 75.3606 45.3689 75.5732C45.46 75.7859 45.5034 76.0073 45.5034 76.2373C45.5034 76.4717 45.46 76.693 45.3689 76.9057C45.2734 77.1184 45.1432 77.3007 44.9739 77.4613C44.8046 77.6219 44.6137 77.7391 44.3923 77.8215C44.1753 77.8996 43.9496 77.9344 43.7196 77.9213H22.9166C22.6866 77.9344 22.4609 77.8996 22.2395 77.8215C22.0225 77.7391 21.8272 77.6219 21.6579 77.4613C21.493 77.3007 21.3585 77.1184 21.2673 76.9057C21.1762 76.693 21.1328 76.4717 21.1328 76.2373C21.1328 76.0073 21.1762 75.7859 21.2673 75.5732C21.3585 75.3606 21.493 75.174 21.6579 75.0177C21.8272 74.8571 22.0225 74.7399 22.2395 74.6575C22.4609 74.5793 22.6866 74.5446 22.9166 74.5533Z" fill="#6299FF"/>
  </g>
  <mask id="mask2_577_24589" style="mask-type:luminance" maskUnits="userSpaceOnUse" x="0" y="37" width="8" height="4">
    <path d="M0 37.0181H7.08333V40.3514H0V37.0181Z" fill="white"/>
  </mask>
  <g mask="url(#mask2_577_24589)">
    <path d="M7.02691 38.0991C6.9835 37.8474 6.86632 37.6391 6.671 37.4741C6.47135 37.3092 6.24566 37.2267 5.98958 37.2267C5.92882 37.218 5.86805 37.218 5.80729 37.2267L0.946175 38.0991C0.672738 38.1425 0.451384 38.2684 0.282112 38.4854C0.108501 38.7024 0.0347172 38.9455 0.0607594 39.2189C0.0824605 39.4923 0.195307 39.718 0.399301 39.9047C0.603294 40.087 0.846349 40.1781 1.11979 40.1738C1.30642 40.1738 6.17187 39.3057 6.17187 39.3057C6.45399 39.2536 6.68402 39.1104 6.84895 38.876C7.01822 38.6417 7.07465 38.3812 7.02691 38.0991Z" fill="#6299FF"/>
  </g>
  <path d="M59.0928 26.6494C59.1536 26.8794 59.2795 27.066 59.4704 27.2093C59.6571 27.3525 59.8697 27.4263 60.1085 27.4263C60.2039 27.4263 60.2951 27.4132 60.3862 27.3915L65.1605 26.1242C65.4166 26.0547 65.6163 25.9115 65.7638 25.6945C65.9114 25.4775 65.9678 25.2388 65.9331 24.9784C65.8984 24.7136 65.7812 24.5009 65.5816 24.3273C65.3819 24.1537 65.1519 24.0669 64.8871 24.0669C64.7916 24.0669 64.7005 24.0799 64.6093 24.1016L59.8307 25.369C59.5529 25.4471 59.3402 25.6077 59.197 25.8594C59.0494 26.1068 59.0191 26.3716 59.0928 26.6494Z" fill="#6299FF"/>
  <path d="M11.4496 48.6805C11.2326 48.381 10.9374 48.2378 10.5685 48.2465C10.3471 48.2465 10.1475 48.3072 9.9652 48.4374L5.91572 51.2456C5.677 51.4149 5.53378 51.6406 5.48603 51.9227C5.43395 52.2048 5.49471 52.4652 5.65964 52.7039C5.87666 53.0034 6.16746 53.1466 6.54072 53.138C6.76207 53.138 6.96173 53.0772 7.14402 52.9513L11.1892 50.1518C11.3063 50.0737 11.4018 49.9739 11.48 49.8567C11.5581 49.7395 11.6102 49.6093 11.6319 49.4704C11.6579 49.3315 11.6536 49.197 11.6232 49.0581C11.5885 48.9192 11.532 48.7933 11.4496 48.6805Z" fill="#6299FF"/>
  <mask id="mask3_577_24589" style="mask-type:luminance" maskUnits="userSpaceOnUse" x="59" y="37" width="8" height="4">
    <path d="M59.3054 37.0181H66.6665V40.3514H59.3054V37.0181Z" fill="white"/>
  </mask>
  <g mask="url(#mask3_577_24589)">
    <path d="M65.6856 38.0991L60.8158 37.2267C60.7551 37.218 60.6943 37.218 60.6335 37.2267C60.3558 37.2224 60.117 37.3135 59.9087 37.4958C59.7047 37.6781 59.5919 37.9081 59.5658 38.1816C59.5441 38.455 59.6179 38.6981 59.7872 38.9151C59.9565 39.1321 60.1778 39.2623 60.4512 39.3057L65.3167 40.1738C65.3775 40.1781 65.4382 40.1781 65.5033 40.1738C65.7768 40.1825 66.0198 40.0913 66.2282 39.909C66.4322 39.7224 66.5493 39.4967 66.571 39.2233C66.5971 38.9498 66.5233 38.7024 66.354 38.4854C66.1804 38.2684 65.9591 38.1425 65.6856 38.0991Z" fill="#6299FF"/>
  </g>
  <path d="M60.7118 51.2325L56.6406 48.4114C56.4626 48.2811 56.263 48.2204 56.0416 48.2204C55.7986 48.2074 55.5816 48.2725 55.3862 48.407C55.1866 48.5459 55.0564 48.7282 54.9826 48.9539C54.9132 49.1839 54.9218 49.4096 55.0043 49.631C55.0911 49.8567 55.2343 50.0303 55.4383 50.1518L59.4835 52.9643C59.7222 53.1292 59.9869 53.19 60.2734 53.1379C60.5599 53.0902 60.7899 52.9469 60.9548 52.7082C61.1241 52.4739 61.1805 52.2134 61.1328 51.927C61.0807 51.6449 60.9375 51.4192 60.6987 51.2499L60.7118 51.2325Z" fill="#6299FF"/>
</svg>