<svg xmlns="http://www.w3.org/2000/svg" width="101" height="78" viewBox="0 0 101 78" fill="none">
  <mask id="mask0_577_24588" style="mask-type:luminance" maskUnits="userSpaceOnUse" x="17" y="0" width="39" height="38">
    <path d="M19.3181 1.5H53.6776V35.9561H19.3181V1.5Z" fill="white" stroke="white" stroke-width="3"/>
  </mask>
  <g mask="url(#mask0_577_24588)">
    <path d="M52.6705 18.0701C52.6705 19.1553 52.5663 20.2352 52.3526 21.2994C52.1441 22.3636 51.8366 23.3963 51.4249 24.4028C51.0131 25.4041 50.5128 26.3582 49.9134 27.2598C49.3192 28.1667 48.6417 29.0003 47.8807 29.7656C47.1198 30.5363 46.2963 31.223 45.405 31.8259C44.5138 32.4287 43.5704 32.9372 42.5749 33.3514C41.5847 33.7707 40.5631 34.0853 39.5103 34.295C38.4575 34.5047 37.3942 34.6147 36.3206 34.6147C35.2469 34.6147 34.1837 34.5047 33.1308 34.295C32.078 34.0853 31.0565 33.7707 30.0662 33.3514C29.0759 32.9372 28.1326 32.4287 27.2413 31.8259C26.3449 31.223 25.5214 30.5363 24.7604 29.7656C24.0047 29.0003 23.3271 28.1667 22.7278 27.2598C22.1336 26.3582 21.628 25.4041 21.2163 24.4028C20.8097 23.3963 20.497 22.3636 20.2885 21.2994C20.0801 20.2352 19.9758 19.1553 19.9758 18.0701C19.9758 16.985 20.0801 15.9103 20.2885 14.8461C20.497 13.782 20.8097 12.744 21.2163 11.7427C21.628 10.7362 22.1336 9.78734 22.7278 8.88043C23.3271 7.97876 24.0047 7.14524 24.7604 6.37462C25.5214 5.60925 26.3449 4.92251 27.2413 4.31965C28.1326 3.71679 29.0759 3.20305 30.0662 2.78891C31.0565 2.37477 32.078 2.06023 33.1308 1.85054C34.1837 1.63561 35.2469 1.53076 36.3206 1.53076C37.3942 1.53076 38.4575 1.63561 39.5103 1.85054C40.5631 2.06023 41.5847 2.37477 42.5749 2.78891C43.5704 3.20305 44.5138 3.71679 45.405 4.31965C46.2963 4.92251 47.1198 5.60925 47.8807 6.37462C48.6417 7.14524 49.3192 7.97876 49.9134 8.88043C50.5128 9.78734 51.0131 10.7362 51.4249 11.7427C51.8366 12.744 52.1441 13.782 52.3526 14.8461C52.5663 15.9103 52.6705 16.985 52.6705 18.0701Z" stroke="#6299FF" stroke-width="3" stroke-miterlimit="10" stroke-linecap="round" stroke-linejoin="round"/>
  </g>
  <path d="M70.6417 77.9999H2V74.7077C2 55.5315 17.3701 39.9829 36.3208 39.9829C55.2768 39.9829 70.6417 55.5315 70.6417 74.7077V77.9999Z" stroke="#6299FF" stroke-width="3" stroke-miterlimit="10" stroke-linecap="round" stroke-linejoin="round"/>
  <path d="M85.7304 26.3318C85.7304 33.0786 80.3256 38.5463 73.6647 38.5463C67.0038 38.5463 61.5938 33.0786 61.5938 26.3318C61.5938 19.5902 66.9986 14.1226 73.6647 14.1226C80.3308 14.1226 85.7304 19.5902 85.7304 26.3318Z" stroke="#6299FF" stroke-width="3" stroke-miterlimit="10" stroke-linecap="round" stroke-linejoin="round"/>
  <path d="M78.4752 70.5716H99V68.1445C99 61.0674 96.1542 54.6614 91.5833 50.0115C86.9864 45.3825 80.6538 42.5098 73.6594 42.5098C70.5791 42.5098 67.6343 43.055 64.8928 44.0772" stroke="#6299FF" stroke-width="3" stroke-miterlimit="10" stroke-linecap="round" stroke-linejoin="round"/>
</svg>